<?xml version="1.0" encoding="UTF-8"?>
<mxfile host="app.diagrams.net" modified="2024-03-31T10:00:00.000Z" agent="Mozilla/5.0" version="21.6.6" type="device">
  <diagram id="flow-diagram" name="流程图">
    <mxGraphModel dx="1422" dy="762" grid="1" gridSize="10" guides="1" tooltips="1" connect="1" arrows="1" fold="1" page="1" pageScale="1" pageWidth="827" pageHeight="1169" math="0" shadow="0">
      <root>
        <mxCell id="0"/>
        <mxCell id="1" parent="0"/>
        
        <!-- 开始节点 -->
        <mxCell id="2" value="开始" style="ellipse;whiteSpace=wrap;html=1;fillColor=#d5e8d4;strokeColor=#82b366;" vertex="1" parent="1">
          <mxGeometry x="360" y="40" width="80" height="40" as="geometry"/>
        </mxCell>
        
        <!-- 注册/登录 -->
        <mxCell id="3" value="用户注册/登录" style="rounded=1;whiteSpace=wrap;html=1;fillColor=#dae8fc;strokeColor=#6c8ebf;" vertex="1" parent="1">
          <mxGeometry x="340" y="120" width="120" height="40" as="geometry"/>
        </mxCell>
        
        <!-- 判断是否登录成功 -->
        <mxCell id="4" value="登录成功？" style="rhombus;whiteSpace=wrap;html=1;fillColor=#fff2cc;strokeColor=#d6b656;" vertex="1" parent="1">
          <mxGeometry x="360" y="200" width="80" height="80" as="geometry"/>
        </mxCell>
        
        <!-- 创建/选择项目 -->
        <mxCell id="5" value="创建/选择项目" style="rounded=1;whiteSpace=wrap;html=1;fillColor=#dae8fc;strokeColor=#6c8ebf;" vertex="1" parent="1">
          <mxGeometry x="340" y="320" width="120" height="40" as="geometry"/>
        </mxCell>
        
        <!-- 输入需求 -->
        <mxCell id="6" value="输入需求描述" style="rounded=1;whiteSpace=wrap;html=1;fillColor=#dae8fc;strokeColor=#6c8ebf;" vertex="1" parent="1">
          <mxGeometry x="340" y="400" width="120" height="40" as="geometry"/>
        </mxCell>
        
        <!-- AI需求分析细化流程 -->
        <mxCell id="7" value="AI理解和分析需求" style="rounded=1;whiteSpace=wrap;html=1;fillColor=#e1d5e7;strokeColor=#9673a6;" vertex="1" parent="1">
          <mxGeometry x="340" y="480" width="120" height="40" as="geometry"/>
        </mxCell>
        
        <mxCell id="21" value="需求补充建议" style="rounded=1;whiteSpace=wrap;html=1;fillColor=#e1d5e7;strokeColor=#9673a6;" vertex="1" parent="1">
          <mxGeometry x="340" y="560" width="120" height="40" as="geometry"/>
        </mxCell>
        
        <mxCell id="22" value="用户确认补充？" style="rhombus;whiteSpace=wrap;html=1;fillColor=#fff2cc;strokeColor=#d6b656;" vertex="1" parent="1">
          <mxGeometry x="360" y="640" width="80" height="80" as="geometry"/>
        </mxCell>
        
        <mxCell id="23" value="匹配项目模板" style="rounded=1;whiteSpace=wrap;html=1;fillColor=#e1d5e7;strokeColor=#9673a6;" vertex="1" parent="1">
          <mxGeometry x="340" y="760" width="120" height="40" as="geometry"/>
        </mxCell>
        
        <mxCell id="24" value="模板适配？" style="rhombus;whiteSpace=wrap;html=1;fillColor=#fff2cc;strokeColor=#d6b656;" vertex="1" parent="1">
          <mxGeometry x="360" y="840" width="80" height="80" as="geometry"/>
        </mxCell>
        
        <!-- 生成代码 -->
        <mxCell id="8" value="生成代码" style="rounded=1;whiteSpace=wrap;html=1;fillColor=#e1d5e7;strokeColor=#9673a6;" vertex="1" parent="1">
          <mxGeometry x="340" y="960" width="120" height="40" as="geometry"/>
        </mxCell>
        
        <!-- 生成测试 -->
        <mxCell id="9" value="生成测试" style="rounded=1;whiteSpace=wrap;html=1;fillColor=#e1d5e7;strokeColor=#9673a6;" vertex="1" parent="1">
          <mxGeometry x="340" y="1040" width="120" height="40" as="geometry"/>
        </mxCell>
        
        <!-- 结束节点 -->
        <mxCell id="10" value="结束" style="ellipse;whiteSpace=wrap;html=1;fillColor=#f8cecc;strokeColor=#b85450;" vertex="1" parent="1">
          <mxGeometry x="360" y="1120" width="80" height="40" as="geometry"/>
        </mxCell>
        
        <!-- 连接线 -->
        <mxCell id="11" value="" style="endArrow=classic;html=1;rounded=0;exitX=0.5;exitY=1;exitDx=0;exitDy=0;entryX=0.5;entryY=0;entryDx=0;entryDy=0;" edge="1" parent="1" source="2" target="3">
          <mxGeometry width="50" height="50" relative="1" as="geometry"/>
        </mxCell>
        
        <mxCell id="12" value="" style="endArrow=classic;html=1;rounded=0;exitX=0.5;exitY=1;exitDx=0;exitDy=0;entryX=0.5;entryY=0;entryDx=0;entryDy=0;" edge="1" parent="1" source="3" target="4">
          <mxGeometry width="50" height="50" relative="1" as="geometry"/>
        </mxCell>
        
        <mxCell id="13" value="是" style="endArrow=classic;html=1;rounded=0;exitX=0.5;exitY=1;exitDx=0;exitDy=0;entryX=0.5;entryY=0;entryDx=0;entryDy=0;" edge="1" parent="1" source="4" target="5">
          <mxGeometry relative="1" as="geometry"/>
        </mxCell>
        
        <mxCell id="14" value="否" style="endArrow=classic;html=1;rounded=0;exitX=0;exitY=0.5;exitDx=0;exitDy=0;entryX=0;entryY=0.5;entryDx=0;entryDy=0;edgeStyle=orthogonalEdgeStyle;" edge="1" parent="1" source="4" target="3">
          <mxGeometry relative="1" as="geometry">
            <Array as="points">
              <mxPoint x="280" y="240"/>
              <mxPoint x="280" y="140"/>
            </Array>
          </mxGeometry>
        </mxCell>
        
        <!-- 新增连接线 -->
        <mxCell id="25" value="" style="endArrow=classic;html=1;rounded=0;exitX=0.5;exitY=1;exitDx=0;exitDy=0;entryX=0.5;entryY=0;entryDx=0;entryDy=0;" edge="1" parent="1" source="5" target="6">
          <mxGeometry width="50" height="50" relative="1" as="geometry"/>
        </mxCell>
        
        <mxCell id="26" value="" style="endArrow=classic;html=1;rounded=0;exitX=0.5;exitY=1;exitDx=0;exitDy=0;entryX=0.5;entryY=0;entryDx=0;entryDy=0;" edge="1" parent="1" source="6" target="7">
          <mxGeometry width="50" height="50" relative="1" as="geometry"/>
        </mxCell>
        
        <mxCell id="27" value="" style="endArrow=classic;html=1;rounded=0;exitX=0.5;exitY=1;exitDx=0;exitDy=0;entryX=0.5;entryY=0;entryDx=0;entryDy=0;" edge="1" parent="1" source="7" target="21">
          <mxGeometry width="50" height="50" relative="1" as="geometry"/>
        </mxCell>
        
        <mxCell id="28" value="" style="endArrow=classic;html=1;rounded=0;exitX=0.5;exitY=1;exitDx=0;exitDy=0;entryX=0.5;entryY=0;entryDx=0;entryDy=0;" edge="1" parent="1" source="21" target="22">
          <mxGeometry width="50" height="50" relative="1" as="geometry"/>
        </mxCell>
        
        <mxCell id="29" value="是" style="endArrow=classic;html=1;rounded=0;exitX=0.5;exitY=1;exitDx=0;exitDy=0;entryX=0.5;entryY=0;entryDx=0;entryDy=0;" edge="1" parent="1" source="22" target="23">
          <mxGeometry relative="1" as="geometry"/>
        </mxCell>
        
        <mxCell id="30" value="否" style="endArrow=classic;html=1;rounded=0;exitX=0;exitY=0.5;exitDx=0;exitDy=0;entryX=0;entryY=0.5;entryDx=0;entryDy=0;edgeStyle=orthogonalEdgeStyle;" edge="1" parent="1" source="22" target="6">
          <mxGeometry relative="1" as="geometry">
            <Array as="points">
              <mxPoint x="240" y="680"/>
              <mxPoint x="240" y="420"/>
            </Array>
          </mxGeometry>
        </mxCell>
        
        <mxCell id="31" value="" style="endArrow=classic;html=1;rounded=0;exitX=0.5;exitY=1;exitDx=0;exitDy=0;entryX=0.5;entryY=0;entryDx=0;entryDy=0;" edge="1" parent="1" source="23" target="24">
          <mxGeometry width="50" height="50" relative="1" as="geometry"/>
        </mxCell>
        
        <mxCell id="32" value="是" style="endArrow=classic;html=1;rounded=0;exitX=0.5;exitY=1;exitDx=0;exitDy=0;entryX=0.5;entryY=0;entryDx=0;entryDy=0;" edge="1" parent="1" source="24" target="8">
          <mxGeometry relative="1" as="geometry"/>
        </mxCell>
        
        <mxCell id="33" value="否" style="endArrow=classic;html=1;rounded=0;exitX=1;exitY=0.5;exitDx=0;exitDy=0;entryX=1;entryY=0.5;entryDx=0;entryDy=0;edgeStyle=orthogonalEdgeStyle;" edge="1" parent="1" source="24" target="6">
          <mxGeometry relative="1" as="geometry">
            <Array as="points">
              <mxPoint x="520" y="880"/>
              <mxPoint x="520" y="420"/>
            </Array>
          </mxGeometry>
        </mxCell>
        
        <mxCell id="34" value="" style="endArrow=classic;html=1;rounded=0;exitX=0.5;exitY=1;exitDx=0;exitDy=0;entryX=0.5;entryY=0;entryDx=0;entryDy=0;" edge="1" parent="1" source="8" target="9">
          <mxGeometry width="50" height="50" relative="1" as="geometry"/>
        </mxCell>
        
        <mxCell id="35" value="" style="endArrow=classic;html=1;rounded=0;exitX=0.5;exitY=1;exitDx=0;exitDy=0;entryX=0.5;entryY=0;entryDx=0;entryDy=0;" edge="1" parent="1" source="9" target="10">
          <mxGeometry width="50" height="50" relative="1" as="geometry"/>
        </mxCell>
        
        <!-- 需要修改的返回流程 -->
        <mxCell id="36" value="需要修改" style="endArrow=classic;html=1;rounded=0;exitX=0;exitY=0.5;exitDx=0;exitDy=0;entryX=0;entryY=0.5;entryDx=0;entryDy=0;edgeStyle=orthogonalEdgeStyle;" edge="1" parent="1" source="8" target="6">
          <mxGeometry relative="1" as="geometry">
            <Array as="points">
              <mxPoint x="200" y="980"/>
              <mxPoint x="200" y="420"/>
            </Array>
          </mxGeometry>
        </mxCell>
      </root>
    </mxGraphModel>
  </diagram>
</mxfile>